<svg width="23" height="18" viewBox="0 0 23 18" fill="none" xmlns="http://www.w3.org/2000/svg">
<path d="M21.0911 10L1.81836 10C1.26607 10 0.818359 9.55228 0.818359 9C0.818359 8.44772 1.26608 8 1.81836 8L21.0911 8C21.6434 8 22.0911 8.44772 22.0911 9C22.0911 9.55228 21.6434 10 21.0911 10Z" fill="white"/>
<path d="M10.2729 16.8182L10.2729 1.18182C10.2729 0.529118 10.8021 0 11.4548 0C12.1075 0 12.6366 0.529118 12.6366 1.18182L12.6366 16.8182C12.6366 17.4709 12.1075 18 11.4548 18C10.8021 18 10.2729 17.4709 10.2729 16.8182Z" fill="white"/>
</svg>
